<?xml version="1.0" standalone="no"?>
<!DOCTYPE svg PUBLIC "-//W3C//DTD SVG 20010904//EN"
 "http://www.w3.org/TR/2001/REC-SVG-20010904/DTD/svg10.dtd">
<svg version="1.0" xmlns="http://www.w3.org/2000/svg"
 width="80.000000pt" height="180.000000pt" viewBox="0 0 80.000000 180.000000"
 preserveAspectRatio="xMidYMid meet">
<metadata>
Created by potrace 1.15, written by Peter Selinger 2001-2017
</metadata>
<g transform="translate(0.000000,180.000000) scale(0.100000,-0.100000)"
fill="#000000" stroke="none">
<path d="M40 900 l0 -900 380 0 380 0 0 900 0 900 -380 0 -380 0 0 -900z m740
443 l0 -388 -128 128 -127 127 -228 0 -227 0 0 260 0 260 355 0 355 0 0 -387z
m-270 -288 l0 -135 135 0 135 0 0 -452 0 -453 -355 0 -355 0 0 588 0 587 220
0 220 0 0 -135z m140 0 l115 -115 -118 0 -117 0 0 115 c0 63 1 115 3 115 1 0
54 -52 117 -115z"/>
<path d="M315 1700 c-22 -5 -62 -17 -90 -27 -45 -17 -51 -23 -68 -68 -15 -40
-18 -69 -14 -145 2 -52 10 -113 18 -135 13 -37 18 -41 89 -63 159 -52 403 -22
440 53 19 41 25 215 8 280 -15 58 -31 69 -148 97 -78 19 -166 22 -235 8z m240
-35 c101 -27 108 -33 123 -100 14 -68 9 -193 -10 -233 -9 -17 -31 -33 -63 -46
-71 -28 -264 -28 -350 0 -55 18 -61 23 -74 59 -20 56 -19 210 1 256 13 31 24
38 79 56 79 26 210 30 294 8z"/>
</g>
</svg>
