<?xml version="1.0" standalone="no"?>
<!DOCTYPE svg PUBLIC "-//W3C//DTD SVG 20010904//EN"
 "http://www.w3.org/TR/2001/REC-SVG-20010904/DTD/svg10.dtd">
<svg version="1.0" xmlns="http://www.w3.org/2000/svg"
 width="112.000000pt" height="172.000000pt" viewBox="0 0 112.000000 172.000000"
 preserveAspectRatio="xMidYMid meet">
<metadata>
Created by potrace 1.15, written by Peter Selinger 2001-2017
</metadata>
<g transform="translate(0.000000,172.000000) scale(0.100000,-0.100000)"
fill="#000000" stroke="none">
<path d="M120 1531 c-15 -29 -13 -393 3 -413 6 -9 28 -21 48 -27 44 -14 79
-60 86 -112 5 -31 -2 -54 -30 -111 -44 -92 -57 -153 -57 -278 0 -124 13 -185
58 -278 74 -153 193 -235 342 -236 96 -1 168 31 243 106 167 169 204 455 90
696 -28 58 -34 80 -29 108 9 48 59 102 102 110 24 4 36 13 39 28 3 11 4 111 3
221 l-3 200 -442 3 c-429 2 -442 2 -453 -17z m884 -7 c3 -9 6 -101 6 -204 0
-177 -1 -190 -19 -200 -13 -6 -163 -10 -421 -10 -258 0 -408 4 -421 10 -18 10
-19 23 -19 209 0 109 3 201 7 204 3 4 199 7 434 7 380 0 428 -2 433 -16z
m-301 -462 c103 -46 208 -192 236 -330 32 -157 1 -344 -78 -466 -81 -124 -193
-184 -325 -174 -245 20 -414 348 -336 652 70 277 288 414 503 318z"/>
</g>
</svg>
